<?xml version="1.0" encoding="utf-8"?>
<!-- Generator: Adobe Illustrator 27.0.0, SVG Export Plug-In . SVG Version: 6.00 Build 0)  -->
<svg version="1.1" id="Layer_1" xmlns="http://www.w3.org/2000/svg" xmlns:xlink="http://www.w3.org/1999/xlink" x="0px" y="0px"
	 viewBox="0 0 59 49" style="enable-background:new 0 0 59 49;" xml:space="preserve">
<style type="text/css">
	.st0{fill:#02A3EC;}
</style>
<path class="st0" d="M11.8,48.9l4.4-11.5c0.4-1.2,1.2-2.1,2.1-2.8c1-0.7,2.1-1,3.3-1h4.9V21.3c-7.5-0.3-13.8-1.4-18.9-3.5
	C2.6,15.8,0,13.5,0,10.7c0-2.9,2.9-5.4,8.6-7.6C14.4,1,21.3,0,29.5,0c8.2,0,15.1,1,20.9,3.1S59,7.7,59,10.7c0,2.8-2.6,5.2-7.7,7.2
	C46.2,20,40,21.1,32.4,21.3v12.4h4.9c1.2,0,2.3,0.3,3.3,1c1,0.7,1.7,1.6,2.1,2.8L47.2,49h-5.9l-3.5-9.2H21.3l-3.5,9.2H11.8z"/>
</svg>
