<svg width="55" height="54" viewBox="0 0 55 54" fill="none" xmlns="http://www.w3.org/2000/svg">
<path d="M43.5409 44.9999H11.4575C10.8498 44.9999 10.2669 45.237 9.8371 45.6589C9.40733 46.0809 9.16588 46.6532 9.16588 47.2499C9.16588 47.8467 9.40733 48.419 9.8371 48.8409C10.2669 49.2629 10.8498 49.4999 11.4575 49.4999H43.5409C44.1487 49.4999 44.7316 49.2629 45.1613 48.8409C45.5911 48.419 45.8326 47.8467 45.8326 47.2499C45.8326 46.6532 45.5911 46.0809 45.1613 45.6589C44.7316 45.237 44.1487 44.9999 43.5409 44.9999ZM11.4575 40.4999H11.6638L21.22 39.6449C22.2669 39.5425 23.246 39.0897 23.993 38.3624L44.618 18.1124C45.4185 17.2821 45.8511 16.1741 45.821 15.0311C45.791 13.8882 45.3007 12.8036 44.4575 12.0149L38.1784 5.84992C37.3589 5.09414 36.285 4.66048 35.161 4.63144C34.037 4.6024 32.9414 4.98001 32.0825 5.69242L11.4575 25.9424C10.7168 26.6758 10.2556 27.6371 10.1513 28.6649L9.16588 38.0474C9.13501 38.377 9.17856 38.7092 9.29344 39.0203C9.40831 39.3314 9.59168 39.6138 9.83047 39.8474C10.0446 40.056 10.2986 40.2209 10.5778 40.3329C10.857 40.4449 11.1559 40.5016 11.4575 40.4999ZM34.993 8.99992L41.2492 15.1424L36.6659 19.5299L30.5242 13.4999L34.993 8.99992ZM14.5971 29.0474L27.4992 16.4699L33.6867 22.5449L20.8534 35.1449L13.9784 35.7749L14.5971 29.0474Z" fill="#525252"/>
</svg>
