<svg width="54" height="54" viewBox="0 0 54 54" fill="none" xmlns="http://www.w3.org/2000/svg">
<path d="M47.25 13.5002H36V9.74267C35.9472 8.30227 35.3255 6.94155 34.271 5.95883C33.2166 4.97611 31.8156 4.45156 30.375 4.50017H23.625C22.1844 4.45156 20.7834 4.97611 19.729 5.95883C18.6745 6.94155 18.0528 8.30227 18 9.74267V13.5002H6.75C6.15326 13.5002 5.58097 13.7372 5.15901 14.1592C4.73705 14.5811 4.5 15.1534 4.5 15.7502C4.5 16.3469 4.73705 16.9192 5.15901 17.3412C5.58097 17.7631 6.15326 18.0002 6.75 18.0002H9V42.7502C9 44.5404 9.71116 46.2573 10.977 47.5231C12.2429 48.789 13.9598 49.5002 15.75 49.5002H38.25C40.0402 49.5002 41.7571 48.789 43.023 47.5231C44.2888 46.2573 45 44.5404 45 42.7502V18.0002H47.25C47.8467 18.0002 48.419 17.7631 48.841 17.3412C49.2629 16.9192 49.5 16.3469 49.5 15.7502C49.5 15.1534 49.2629 14.5811 48.841 14.1592C48.419 13.7372 47.8467 13.5002 47.25 13.5002ZM22.5 9.74267C22.5 9.38267 22.9725 9.00017 23.625 9.00017H30.375C31.0275 9.00017 31.5 9.38267 31.5 9.74267V13.5002H22.5V9.74267ZM40.5 42.7502C40.5 43.3469 40.2629 43.9192 39.841 44.3412C39.419 44.7631 38.8467 45.0002 38.25 45.0002H15.75C15.1533 45.0002 14.581 44.7631 14.159 44.3412C13.7371 43.9192 13.5 43.3469 13.5 42.7502V18.0002H40.5V42.7502Z" fill="#EF4444"/>
<path d="M20.25 38.25C20.8467 38.25 21.419 38.0129 21.841 37.591C22.2629 37.169 22.5 36.5967 22.5 36V27C22.5 26.4033 22.2629 25.831 21.841 25.409C21.419 24.9871 20.8467 24.75 20.25 24.75C19.6533 24.75 19.081 24.9871 18.659 25.409C18.2371 25.831 18 26.4033 18 27V36C18 36.5967 18.2371 37.169 18.659 37.591C19.081 38.0129 19.6533 38.25 20.25 38.25ZM33.75 38.25C34.3467 38.25 34.919 38.0129 35.341 37.591C35.7629 37.169 36 36.5967 36 36V27C36 26.4033 35.7629 25.831 35.341 25.409C34.919 24.9871 34.3467 24.75 33.75 24.75C33.1533 24.75 32.581 24.9871 32.159 25.409C31.7371 25.831 31.5 26.4033 31.5 27V36C31.5 36.5967 31.7371 37.169 32.159 37.591C32.581 38.0129 33.1533 38.25 33.75 38.25Z" fill="#EF4444"/>
</svg>
